<svg xmlns="http://www.w3.org/2000/svg" viewBox="0 0 60 60">
  <path fill="#9FC023" d="M16.1 28.3l-5.8-.8c-.1 0-.2.1-.2.2-.2 1.6-.2 3.3 0 4.9 0 .1.1.2.2.2l5.8-.8c.1 0 .2-.1.2-.2-.1-1.1-.1-2.2 0-3.3 0-.1 0-.2-.2-.2z"/>
  <path fill="#D71721" d="M19 21.4l-4.7-3.6c-.1-.1-.2-.1-.3.1-1 1.3-1.8 2.8-2.5 4.3-.1.1 0 .2.1.2l5.5 2.3c.1.1.2 0 .2-.1.4-1 1-2 1.7-2.9.1-.1.1-.2 0-.3z"/>
  <path fill="#2491D0" d="M17.1 35.7l-5.5 2.2c-.1.1-.2.2-.1.2.7 1.5 1.5 2.9 2.5 4.3.1.1.2.1.3.1l4.7-3.6c.1-.1.1-.2.1-.3-.7-.9-1.2-1.9-1.6-2.9-.2 0-.3-.1-.4 0z"/>
  <path fill="#ECA517" d="M45 32l5.8.8c.1 0 .2-.1.2-.2.2-1.6.2-3.3 0-4.9 0-.1-.1-.2-.2-.2l-5.8.8c-.1 0-.2.1-.2.2.1 1.1.1 2.2 0 3.3 0 .1.1.2.2.2z"/>
  <path fill="#D53183" d="M42.2 38.9l4.7 3.6c.1.1.2.1.3-.1 1-1.3 1.8-2.8 2.5-4.3.1-.1 0-.2-.1-.2L44 35.7c-.1-.1-.2 0-.2.1-.4 1-1 2-1.7 2.9-.1.1-.1.2.1.2z"/>
  <path fill="#11917D" d="M44 24.7l5.5-2.2c.1-.1.2-.2.1-.2-.7-1.5-1.5-2.9-2.5-4.3-.1-.1-.2-.1-.3-.1l-4.7 3.6c-.1.1-.1.2-.1.3.7.9 1.2 1.9 1.7 2.9 0 0 .1 0 .2 0z"/>
  <path fill="#040000" d="M34.4 38.6c-.1 0-.2-.1-.2-.2V31c0-2.8-1.4-4.6-3.9-4.6-2 0-3.8 1.6-3.8 3.7 0 2.6 2 3.9 3.7 3.9 1 0 1.8-.2 2.4-.4.1-.1.2.1.2.2V38c0 .1-.1.1-.1.2-1 .6-2.1.8-3.6.8-3.5 0-8.1-3-8.1-8.8 0-5 3.9-8.9 9.2-8.9 5.4 0 9.5 3.5 9.5 8.7v8.3c0 .1-.1.2-.2.2h-4.1z"/>
</svg>